<svg width="512" height="512" viewBox="0 0 512 512" fill="none" xmlns="http://www.w3.org/2000/svg">
<rect width="512" height="512" fill="#F4A90E"/>
<path d="M161.443 354.988L131.898 325.444C125.631 319.179 121.062 308.139 121.062 299.271V245.218C121.062 241.913 118.8 236.061 116.578 233.616L73.4335 186.159C71.3708 183.89 71.5696 180.472 73.8013 178.443L81.7349 171.231C84.0014 169.171 87.4214 169.366 89.4506 171.597L132.595 219.054C138.44 225.483 142.708 236.529 142.708 245.217V299.27C142.708 302.398 144.999 307.931 147.204 310.137L168.458 331.389L198.376 239.143C213.724 252.991 234.053 261.421 256.354 261.421C278.654 261.421 298.983 252.991 314.331 239.142L348.469 344.399C365.321 396.358 333.621 440 279.031 440H233.673C182.835 440 151.856 402.144 161.442 354.988L161.443 354.988ZM307.567 75.9157C314.048 68.1393 326.705 72.7222 326.705 82.8441V174.805C326.705 213.676 295.214 245.187 256.353 245.187C217.493 245.187 186.002 213.682 186.002 174.805V82.8441C186.002 72.7222 198.659 68.1393 205.14 75.9157L228.952 104.49H283.753L307.567 75.9157Z" fill="black"/>
</svg>
