<?xml version="1.0" encoding="UTF-8"?>
<svg width="1200pt" height="1200pt" version="1.1" viewBox="0 0 1200 1200" xmlns="http://www.w3.org/2000/svg">
 <path d="m440.5 922.77-96.344-96.344c-20.434-20.43-35.336-56.434-35.336-85.352v-176.27c0-10.777-7.375-29.863-14.621-37.836l-140.69-154.76c-6.7266-7.3984-6.0781-18.543 1.1992-25.16l25.871-23.52c7.3906-6.7188 18.543-6.082 25.16 1.1953l140.69 154.76c19.062 20.965 32.977 56.984 32.977 85.316v176.27c0 10.203 7.4727 28.246 14.664 35.438l69.305 69.305 97.562-300.82c50.047 45.16 116.34 72.652 189.06 72.652s139.01-27.492 189.06-72.656l111.32 343.25c54.953 169.44-48.418 311.76-226.43 311.76h-147.91c-165.78 0-266.8-123.45-235.54-277.23zm476.5-910.07c21.133-25.359 62.406-10.414 62.406 22.594v299.89c0 126.76-102.69 229.52-229.41 229.52-126.72 0-229.41-102.74-229.41-229.52v-299.89c0-33.008 41.273-47.953 62.406-22.594l77.652 93.184h178.7z"/>
</svg>
