<?xml version="1.0" encoding="UTF-8"?>
<svg height="24" version="1.1" viewBox="0 0 700 700" width="24" xmlns="http://www.w3.org/2000/svg">
  <path class="content" d="m256.96 538.28-56.203-56.199c-11.918-11.918-20.609-32.918-20.609-49.789v-102.82c0-6.2891-4.3047-17.422-8.5312-22.07l-82.07-90.277c-3.9219-4.3164-3.543-10.816 0.70312-14.676l15.09-13.719c4.3125-3.9219 10.816-3.5508 14.676 0.69531l82.07 90.277c11.117 12.23 19.238 33.242 19.238 49.77v102.82c0 5.9531 4.3555 16.477 8.5508 20.672l40.43 40.43 56.91-175.48c29.195 26.344 67.863 42.379 110.29 42.379 42.418 0 81.09-16.035 110.29-42.379l64.938 200.23c32.055 98.844-28.242 181.86-132.08 181.86h-86.281c-96.707 0-155.63-72.016-137.4-161.72zm277.96-530.88c12.328-14.793 36.406-6.0742 36.406 13.184v174.94c0 73.945-59.902 133.88-133.82 133.88-73.918 0-133.82-59.93-133.82-133.88v-174.94c0-19.258 24.078-27.977 36.406-13.184l45.297 54.359h104.24z"/>
</svg>
